M48
; DRILL file KiCad 10.0.1 date 2026-05-27T21:03:59
; FORMAT={-:-/ absolute / metric / decimal}
; #@! TF.CreationDate,2026-05-27T21:03:59-06:00
; #@! TF.GenerationSoftware,Kicad,Pcbnew,10.0.1
; #@! TF.FileFunction,Plated,1,2,PTH
FMAT,2
METRIC
; #@! TA.AperFunction,Plated,PTH,ViaDrill
T1C0.300
; #@! TA.AperFunction,Plated,PTH,ComponentDrill
T2C0.600
; #@! TA.AperFunction,Plated,PTH,ComponentDrill
T3C1.000
%
G90
G05
T1
X130.87Y-93.78
X131.01Y-99.66
X131.18Y-80.24
X131.43Y-76.42
X131.59Y-102.93
X132.03Y-73.67
X134.36Y-91.93
X134.37Y-101.72
X135.803Y-92.986
X136.07Y-99.496
X136.59Y-95.83
X137.18Y-88.46
X137.92Y-89.855
X138.52Y-94.535
X138.53Y-87.77
X138.66Y-90.93
X138.85Y-98.48
X139.28Y-100.696
X139.6Y-65.12
X139.685Y-111.285
X140.04Y-70.16
X140.24Y-81.19
X140.619Y-88.523
X140.733Y-93.535
X141.235Y-76.04
X141.282Y-87.488
X141.52Y-94.39
X141.709Y-98.94
X141.743Y-85.457
X141.827Y-88.883
X142.09Y-97.13
X142.365Y-94.335
X142.465Y-91.18
X142.68Y-90.41
X142.835Y-71.49
X142.864Y-100.096
X143.01Y-67.85
X143.034Y-98.59
X143.589Y-101.16
X144.688Y-90.047
X144.699Y-94.811
X144.7Y-107.74
X144.76Y-91.24
X144.782Y-100.823
X144.95Y-67.73
X144.95Y-83.345
X145.1Y-96.99
X145.14Y-69.95
X145.239Y-98.221
X145.54Y-111.21
X145.83Y-105.28
X145.99Y-108.72
X146.06Y-98.84
X146.33Y-72.675
X147.12Y-90.69
X147.287Y-87.389
X147.587Y-74.797
X147.632Y-97.502
X147.782Y-99.692
X148.025Y-106.65
X148.12Y-95.21
X148.38Y-105.933
X148.86Y-72.675
X149.32Y-110.255
X149.5Y-94.89
X149.851Y-90.46
X149.87Y-93.32
X150.36Y-97.54
X150.391Y-96.01
X150.584Y-108.351
X150.747Y-90.01
X150.75Y-99.44
X151.07Y-110.26
X151.4Y-109.05
X151.51Y-96.2
X151.518Y-69.516
X151.633Y-95.41
X151.727Y-93.348
X151.755Y-66.78
X151.933Y-92.277
X152.02Y-89.89
X152.265Y-106.751
X152.34Y-115.69
X152.45Y-88.44
X152.735Y-95.662
X152.785Y-94.864
X152.89Y-90.41
X153.242Y-92.625
X153.265Y-91.61
X153.35Y-104.13
X153.37Y-108.155
X153.446Y-87.454
X153.79Y-68.96
X153.84Y-109.46
X153.9Y-67.72
X153.92Y-107.98
X153.96Y-100.71
X154.16Y-92.14
X154.38Y-105.42
X154.855Y-89.43
X155.205Y-97.793
X155.44Y-110.885
X155.489Y-87.801
X155.81Y-89.91
X156.32Y-88.44
X156.51Y-93.52
X156.75Y-94.9
X157.54Y-80.77
X157.59Y-93.48
X158.38Y-108.479
X159.394Y-88.264
X159.58Y-108.41
X159.76Y-92.88
X162.34Y-68.36
T3
X127.91Y-69.005
X127.91Y-71.545
X127.91Y-74.085
X127.91Y-76.625
X127.91Y-79.165
X127.91Y-81.705
X127.91Y-84.245
X127.91Y-86.785
X127.91Y-89.325
X127.91Y-91.865
X127.91Y-94.405
X127.91Y-96.945
X127.91Y-99.485
X127.91Y-102.025
X127.91Y-104.565
X127.91Y-107.105
X127.91Y-109.645
X127.91Y-112.185
X127.91Y-114.725
X127.91Y-117.265
X153.9Y-118.3
X156.44Y-118.3
X158.98Y-118.3
X161.52Y-118.3
X162.28Y-76.91
X162.28Y-79.45
X162.28Y-81.99
X162.28Y-84.53
X162.28Y-87.07
X162.28Y-89.61
X162.28Y-92.15
X162.28Y-94.69
X162.28Y-97.23
X162.28Y-99.77
X162.28Y-102.31
X162.28Y-104.85
X162.28Y-107.39
T2
G00X141.31Y-115.91
M15
G01X141.31Y-117.01
M16
G05
G00X141.31Y-120.34
M15
G01X141.31Y-120.94
M16
G05
G00X149.95Y-115.91
M15
G01X149.95Y-117.01
M16
G05
G00X149.95Y-120.34
M15
G01X149.95Y-120.94
M16
G05
M30
