%TF.GenerationSoftware,KiCad,Pcbnew,10.0.1*%
%TF.CreationDate,2026-05-27T21:04:03-06:00*%
%TF.ProjectId,week 6 resolution,7765656b-2036-4207-9265-736f6c757469,rev?*%
%TF.SameCoordinates,Original*%
%TF.FileFunction,Legend,Top*%
%TF.FilePolarity,Positive*%
%FSLAX46Y46*%
G04 Gerber Fmt 4.6, Leading zero omitted, Abs format (unit mm)*
G04 Created by KiCad (PCBNEW 10.0.1) date 2026-05-27 21:04:03*
%MOMM*%
%LPD*%
G01*
G04 APERTURE LIST*
%ADD10C,0.150000*%
%ADD11C,0.120000*%
%ADD12C,0.300000*%
%ADD13C,0.060000*%
G04 APERTURE END LIST*
D10*
X153913333Y-91219580D02*
X153865714Y-91267200D01*
X153865714Y-91267200D02*
X153722857Y-91314819D01*
X153722857Y-91314819D02*
X153627619Y-91314819D01*
X153627619Y-91314819D02*
X153484762Y-91267200D01*
X153484762Y-91267200D02*
X153389524Y-91171961D01*
X153389524Y-91171961D02*
X153341905Y-91076723D01*
X153341905Y-91076723D02*
X153294286Y-90886247D01*
X153294286Y-90886247D02*
X153294286Y-90743390D01*
X153294286Y-90743390D02*
X153341905Y-90552914D01*
X153341905Y-90552914D02*
X153389524Y-90457676D01*
X153389524Y-90457676D02*
X153484762Y-90362438D01*
X153484762Y-90362438D02*
X153627619Y-90314819D01*
X153627619Y-90314819D02*
X153722857Y-90314819D01*
X153722857Y-90314819D02*
X153865714Y-90362438D01*
X153865714Y-90362438D02*
X153913333Y-90410057D01*
X154484762Y-90743390D02*
X154389524Y-90695771D01*
X154389524Y-90695771D02*
X154341905Y-90648152D01*
X154341905Y-90648152D02*
X154294286Y-90552914D01*
X154294286Y-90552914D02*
X154294286Y-90505295D01*
X154294286Y-90505295D02*
X154341905Y-90410057D01*
X154341905Y-90410057D02*
X154389524Y-90362438D01*
X154389524Y-90362438D02*
X154484762Y-90314819D01*
X154484762Y-90314819D02*
X154675238Y-90314819D01*
X154675238Y-90314819D02*
X154770476Y-90362438D01*
X154770476Y-90362438D02*
X154818095Y-90410057D01*
X154818095Y-90410057D02*
X154865714Y-90505295D01*
X154865714Y-90505295D02*
X154865714Y-90552914D01*
X154865714Y-90552914D02*
X154818095Y-90648152D01*
X154818095Y-90648152D02*
X154770476Y-90695771D01*
X154770476Y-90695771D02*
X154675238Y-90743390D01*
X154675238Y-90743390D02*
X154484762Y-90743390D01*
X154484762Y-90743390D02*
X154389524Y-90791009D01*
X154389524Y-90791009D02*
X154341905Y-90838628D01*
X154341905Y-90838628D02*
X154294286Y-90933866D01*
X154294286Y-90933866D02*
X154294286Y-91124342D01*
X154294286Y-91124342D02*
X154341905Y-91219580D01*
X154341905Y-91219580D02*
X154389524Y-91267200D01*
X154389524Y-91267200D02*
X154484762Y-91314819D01*
X154484762Y-91314819D02*
X154675238Y-91314819D01*
X154675238Y-91314819D02*
X154770476Y-91267200D01*
X154770476Y-91267200D02*
X154818095Y-91219580D01*
X154818095Y-91219580D02*
X154865714Y-91124342D01*
X154865714Y-91124342D02*
X154865714Y-90933866D01*
X154865714Y-90933866D02*
X154818095Y-90838628D01*
X154818095Y-90838628D02*
X154770476Y-90791009D01*
X154770476Y-90791009D02*
X154675238Y-90743390D01*
X161946666Y-109224819D02*
X161946666Y-109939104D01*
X161946666Y-109939104D02*
X161899047Y-110081961D01*
X161899047Y-110081961D02*
X161803809Y-110177200D01*
X161803809Y-110177200D02*
X161660952Y-110224819D01*
X161660952Y-110224819D02*
X161565714Y-110224819D01*
X162899047Y-109224819D02*
X162422857Y-109224819D01*
X162422857Y-109224819D02*
X162375238Y-109701009D01*
X162375238Y-109701009D02*
X162422857Y-109653390D01*
X162422857Y-109653390D02*
X162518095Y-109605771D01*
X162518095Y-109605771D02*
X162756190Y-109605771D01*
X162756190Y-109605771D02*
X162851428Y-109653390D01*
X162851428Y-109653390D02*
X162899047Y-109701009D01*
X162899047Y-109701009D02*
X162946666Y-109796247D01*
X162946666Y-109796247D02*
X162946666Y-110034342D01*
X162946666Y-110034342D02*
X162899047Y-110129580D01*
X162899047Y-110129580D02*
X162851428Y-110177200D01*
X162851428Y-110177200D02*
X162756190Y-110224819D01*
X162756190Y-110224819D02*
X162518095Y-110224819D01*
X162518095Y-110224819D02*
X162422857Y-110177200D01*
X162422857Y-110177200D02*
X162375238Y-110129580D01*
X127576666Y-119099819D02*
X127576666Y-119814104D01*
X127576666Y-119814104D02*
X127529047Y-119956961D01*
X127529047Y-119956961D02*
X127433809Y-120052200D01*
X127433809Y-120052200D02*
X127290952Y-120099819D01*
X127290952Y-120099819D02*
X127195714Y-120099819D01*
X128481428Y-119433152D02*
X128481428Y-120099819D01*
X128243333Y-119052200D02*
X128005238Y-119766485D01*
X128005238Y-119766485D02*
X128624285Y-119766485D01*
X150974819Y-118633333D02*
X151689104Y-118633333D01*
X151689104Y-118633333D02*
X151831961Y-118680952D01*
X151831961Y-118680952D02*
X151927200Y-118776190D01*
X151927200Y-118776190D02*
X151974819Y-118919047D01*
X151974819Y-118919047D02*
X151974819Y-119014285D01*
X151070057Y-118204761D02*
X151022438Y-118157142D01*
X151022438Y-118157142D02*
X150974819Y-118061904D01*
X150974819Y-118061904D02*
X150974819Y-117823809D01*
X150974819Y-117823809D02*
X151022438Y-117728571D01*
X151022438Y-117728571D02*
X151070057Y-117680952D01*
X151070057Y-117680952D02*
X151165295Y-117633333D01*
X151165295Y-117633333D02*
X151260533Y-117633333D01*
X151260533Y-117633333D02*
X151403390Y-117680952D01*
X151403390Y-117680952D02*
X151974819Y-118252380D01*
X151974819Y-118252380D02*
X151974819Y-117633333D01*
X154693809Y-95138628D02*
X154693809Y-95614819D01*
X154360476Y-94614819D02*
X154693809Y-95138628D01*
X154693809Y-95138628D02*
X155027142Y-94614819D01*
X155884285Y-95614819D02*
X155312857Y-95614819D01*
X155598571Y-95614819D02*
X155598571Y-94614819D01*
X155598571Y-94614819D02*
X155503333Y-94757676D01*
X155503333Y-94757676D02*
X155408095Y-94852914D01*
X155408095Y-94852914D02*
X155312857Y-94900533D01*
X149518095Y-99809819D02*
X149518095Y-100619342D01*
X149518095Y-100619342D02*
X149565714Y-100714580D01*
X149565714Y-100714580D02*
X149613333Y-100762200D01*
X149613333Y-100762200D02*
X149708571Y-100809819D01*
X149708571Y-100809819D02*
X149899047Y-100809819D01*
X149899047Y-100809819D02*
X149994285Y-100762200D01*
X149994285Y-100762200D02*
X150041904Y-100714580D01*
X150041904Y-100714580D02*
X150089523Y-100619342D01*
X150089523Y-100619342D02*
X150089523Y-99809819D01*
X150994285Y-100143152D02*
X150994285Y-100809819D01*
X150756190Y-99762200D02*
X150518095Y-100476485D01*
X150518095Y-100476485D02*
X151137142Y-100476485D01*
X136758095Y-98974819D02*
X136758095Y-99784342D01*
X136758095Y-99784342D02*
X136805714Y-99879580D01*
X136805714Y-99879580D02*
X136853333Y-99927200D01*
X136853333Y-99927200D02*
X136948571Y-99974819D01*
X136948571Y-99974819D02*
X137139047Y-99974819D01*
X137139047Y-99974819D02*
X137234285Y-99927200D01*
X137234285Y-99927200D02*
X137281904Y-99879580D01*
X137281904Y-99879580D02*
X137329523Y-99784342D01*
X137329523Y-99784342D02*
X137329523Y-98974819D01*
X137710476Y-98974819D02*
X138329523Y-98974819D01*
X138329523Y-98974819D02*
X137996190Y-99355771D01*
X137996190Y-99355771D02*
X138139047Y-99355771D01*
X138139047Y-99355771D02*
X138234285Y-99403390D01*
X138234285Y-99403390D02*
X138281904Y-99451009D01*
X138281904Y-99451009D02*
X138329523Y-99546247D01*
X138329523Y-99546247D02*
X138329523Y-99784342D01*
X138329523Y-99784342D02*
X138281904Y-99879580D01*
X138281904Y-99879580D02*
X138234285Y-99927200D01*
X138234285Y-99927200D02*
X138139047Y-99974819D01*
X138139047Y-99974819D02*
X137853333Y-99974819D01*
X137853333Y-99974819D02*
X137758095Y-99927200D01*
X137758095Y-99927200D02*
X137710476Y-99879580D01*
X147468095Y-61069819D02*
X147468095Y-61879342D01*
X147468095Y-61879342D02*
X147515714Y-61974580D01*
X147515714Y-61974580D02*
X147563333Y-62022200D01*
X147563333Y-62022200D02*
X147658571Y-62069819D01*
X147658571Y-62069819D02*
X147849047Y-62069819D01*
X147849047Y-62069819D02*
X147944285Y-62022200D01*
X147944285Y-62022200D02*
X147991904Y-61974580D01*
X147991904Y-61974580D02*
X148039523Y-61879342D01*
X148039523Y-61879342D02*
X148039523Y-61069819D01*
X148468095Y-61165057D02*
X148515714Y-61117438D01*
X148515714Y-61117438D02*
X148610952Y-61069819D01*
X148610952Y-61069819D02*
X148849047Y-61069819D01*
X148849047Y-61069819D02*
X148944285Y-61117438D01*
X148944285Y-61117438D02*
X148991904Y-61165057D01*
X148991904Y-61165057D02*
X149039523Y-61260295D01*
X149039523Y-61260295D02*
X149039523Y-61355533D01*
X149039523Y-61355533D02*
X148991904Y-61498390D01*
X148991904Y-61498390D02*
X148420476Y-62069819D01*
X148420476Y-62069819D02*
X149039523Y-62069819D01*
X146508095Y-87264819D02*
X146508095Y-88074342D01*
X146508095Y-88074342D02*
X146555714Y-88169580D01*
X146555714Y-88169580D02*
X146603333Y-88217200D01*
X146603333Y-88217200D02*
X146698571Y-88264819D01*
X146698571Y-88264819D02*
X146889047Y-88264819D01*
X146889047Y-88264819D02*
X146984285Y-88217200D01*
X146984285Y-88217200D02*
X147031904Y-88169580D01*
X147031904Y-88169580D02*
X147079523Y-88074342D01*
X147079523Y-88074342D02*
X147079523Y-87264819D01*
X148079523Y-88264819D02*
X147508095Y-88264819D01*
X147793809Y-88264819D02*
X147793809Y-87264819D01*
X147793809Y-87264819D02*
X147698571Y-87407676D01*
X147698571Y-87407676D02*
X147603333Y-87502914D01*
X147603333Y-87502914D02*
X147508095Y-87550533D01*
X158006667Y-64703200D02*
X158149524Y-64750819D01*
X158149524Y-64750819D02*
X158387619Y-64750819D01*
X158387619Y-64750819D02*
X158482857Y-64703200D01*
X158482857Y-64703200D02*
X158530476Y-64655580D01*
X158530476Y-64655580D02*
X158578095Y-64560342D01*
X158578095Y-64560342D02*
X158578095Y-64465104D01*
X158578095Y-64465104D02*
X158530476Y-64369866D01*
X158530476Y-64369866D02*
X158482857Y-64322247D01*
X158482857Y-64322247D02*
X158387619Y-64274628D01*
X158387619Y-64274628D02*
X158197143Y-64227009D01*
X158197143Y-64227009D02*
X158101905Y-64179390D01*
X158101905Y-64179390D02*
X158054286Y-64131771D01*
X158054286Y-64131771D02*
X158006667Y-64036533D01*
X158006667Y-64036533D02*
X158006667Y-63941295D01*
X158006667Y-63941295D02*
X158054286Y-63846057D01*
X158054286Y-63846057D02*
X158101905Y-63798438D01*
X158101905Y-63798438D02*
X158197143Y-63750819D01*
X158197143Y-63750819D02*
X158435238Y-63750819D01*
X158435238Y-63750819D02*
X158578095Y-63798438D01*
X158911429Y-63750819D02*
X159149524Y-64750819D01*
X159149524Y-64750819D02*
X159340000Y-64036533D01*
X159340000Y-64036533D02*
X159530476Y-64750819D01*
X159530476Y-64750819D02*
X159768572Y-63750819D01*
X160101905Y-63846057D02*
X160149524Y-63798438D01*
X160149524Y-63798438D02*
X160244762Y-63750819D01*
X160244762Y-63750819D02*
X160482857Y-63750819D01*
X160482857Y-63750819D02*
X160578095Y-63798438D01*
X160578095Y-63798438D02*
X160625714Y-63846057D01*
X160625714Y-63846057D02*
X160673333Y-63941295D01*
X160673333Y-63941295D02*
X160673333Y-64036533D01*
X160673333Y-64036533D02*
X160625714Y-64179390D01*
X160625714Y-64179390D02*
X160054286Y-64750819D01*
X160054286Y-64750819D02*
X160673333Y-64750819D01*
X158006666Y-64750819D02*
X157673333Y-64274628D01*
X157435238Y-64750819D02*
X157435238Y-63750819D01*
X157435238Y-63750819D02*
X157816190Y-63750819D01*
X157816190Y-63750819D02*
X157911428Y-63798438D01*
X157911428Y-63798438D02*
X157959047Y-63846057D01*
X157959047Y-63846057D02*
X158006666Y-63941295D01*
X158006666Y-63941295D02*
X158006666Y-64084152D01*
X158006666Y-64084152D02*
X157959047Y-64179390D01*
X157959047Y-64179390D02*
X157911428Y-64227009D01*
X157911428Y-64227009D02*
X157816190Y-64274628D01*
X157816190Y-64274628D02*
X157435238Y-64274628D01*
X158435238Y-64227009D02*
X158768571Y-64227009D01*
X158911428Y-64750819D02*
X158435238Y-64750819D01*
X158435238Y-64750819D02*
X158435238Y-63750819D01*
X158435238Y-63750819D02*
X158911428Y-63750819D01*
X159673333Y-64227009D02*
X159340000Y-64227009D01*
X159340000Y-64750819D02*
X159340000Y-63750819D01*
X159340000Y-63750819D02*
X159816190Y-63750819D01*
X160340000Y-63750819D02*
X160340000Y-63988914D01*
X160101905Y-63893676D02*
X160340000Y-63988914D01*
X160340000Y-63988914D02*
X160578095Y-63893676D01*
X160197143Y-64179390D02*
X160340000Y-63988914D01*
X160340000Y-63988914D02*
X160482857Y-64179390D01*
X161101905Y-63750819D02*
X161101905Y-63988914D01*
X160863810Y-63893676D02*
X161101905Y-63988914D01*
X161101905Y-63988914D02*
X161340000Y-63893676D01*
X160959048Y-64179390D02*
X161101905Y-63988914D01*
X161101905Y-63988914D02*
X161244762Y-64179390D01*
X133186667Y-62923200D02*
X133329524Y-62970819D01*
X133329524Y-62970819D02*
X133567619Y-62970819D01*
X133567619Y-62970819D02*
X133662857Y-62923200D01*
X133662857Y-62923200D02*
X133710476Y-62875580D01*
X133710476Y-62875580D02*
X133758095Y-62780342D01*
X133758095Y-62780342D02*
X133758095Y-62685104D01*
X133758095Y-62685104D02*
X133710476Y-62589866D01*
X133710476Y-62589866D02*
X133662857Y-62542247D01*
X133662857Y-62542247D02*
X133567619Y-62494628D01*
X133567619Y-62494628D02*
X133377143Y-62447009D01*
X133377143Y-62447009D02*
X133281905Y-62399390D01*
X133281905Y-62399390D02*
X133234286Y-62351771D01*
X133234286Y-62351771D02*
X133186667Y-62256533D01*
X133186667Y-62256533D02*
X133186667Y-62161295D01*
X133186667Y-62161295D02*
X133234286Y-62066057D01*
X133234286Y-62066057D02*
X133281905Y-62018438D01*
X133281905Y-62018438D02*
X133377143Y-61970819D01*
X133377143Y-61970819D02*
X133615238Y-61970819D01*
X133615238Y-61970819D02*
X133758095Y-62018438D01*
X134091429Y-61970819D02*
X134329524Y-62970819D01*
X134329524Y-62970819D02*
X134520000Y-62256533D01*
X134520000Y-62256533D02*
X134710476Y-62970819D01*
X134710476Y-62970819D02*
X134948572Y-61970819D01*
X135853333Y-62970819D02*
X135281905Y-62970819D01*
X135567619Y-62970819D02*
X135567619Y-61970819D01*
X135567619Y-61970819D02*
X135472381Y-62113676D01*
X135472381Y-62113676D02*
X135377143Y-62208914D01*
X135377143Y-62208914D02*
X135281905Y-62256533D01*
X133186666Y-62970819D02*
X132853333Y-62494628D01*
X132615238Y-62970819D02*
X132615238Y-61970819D01*
X132615238Y-61970819D02*
X132996190Y-61970819D01*
X132996190Y-61970819D02*
X133091428Y-62018438D01*
X133091428Y-62018438D02*
X133139047Y-62066057D01*
X133139047Y-62066057D02*
X133186666Y-62161295D01*
X133186666Y-62161295D02*
X133186666Y-62304152D01*
X133186666Y-62304152D02*
X133139047Y-62399390D01*
X133139047Y-62399390D02*
X133091428Y-62447009D01*
X133091428Y-62447009D02*
X132996190Y-62494628D01*
X132996190Y-62494628D02*
X132615238Y-62494628D01*
X133615238Y-62447009D02*
X133948571Y-62447009D01*
X134091428Y-62970819D02*
X133615238Y-62970819D01*
X133615238Y-62970819D02*
X133615238Y-61970819D01*
X133615238Y-61970819D02*
X134091428Y-61970819D01*
X134853333Y-62447009D02*
X134520000Y-62447009D01*
X134520000Y-62970819D02*
X134520000Y-61970819D01*
X134520000Y-61970819D02*
X134996190Y-61970819D01*
X135520000Y-61970819D02*
X135520000Y-62208914D01*
X135281905Y-62113676D02*
X135520000Y-62208914D01*
X135520000Y-62208914D02*
X135758095Y-62113676D01*
X135377143Y-62399390D02*
X135520000Y-62208914D01*
X135520000Y-62208914D02*
X135662857Y-62399390D01*
X136281905Y-61970819D02*
X136281905Y-62208914D01*
X136043810Y-62113676D02*
X136281905Y-62208914D01*
X136281905Y-62208914D02*
X136520000Y-62113676D01*
X136139048Y-62399390D02*
X136281905Y-62208914D01*
X136281905Y-62208914D02*
X136424762Y-62399390D01*
X148504819Y-99631666D02*
X148028628Y-99964999D01*
X148504819Y-100203094D02*
X147504819Y-100203094D01*
X147504819Y-100203094D02*
X147504819Y-99822142D01*
X147504819Y-99822142D02*
X147552438Y-99726904D01*
X147552438Y-99726904D02*
X147600057Y-99679285D01*
X147600057Y-99679285D02*
X147695295Y-99631666D01*
X147695295Y-99631666D02*
X147838152Y-99631666D01*
X147838152Y-99631666D02*
X147933390Y-99679285D01*
X147933390Y-99679285D02*
X147981009Y-99726904D01*
X147981009Y-99726904D02*
X148028628Y-99822142D01*
X148028628Y-99822142D02*
X148028628Y-100203094D01*
X148504819Y-99155475D02*
X148504819Y-98964999D01*
X148504819Y-98964999D02*
X148457200Y-98869761D01*
X148457200Y-98869761D02*
X148409580Y-98822142D01*
X148409580Y-98822142D02*
X148266723Y-98726904D01*
X148266723Y-98726904D02*
X148076247Y-98679285D01*
X148076247Y-98679285D02*
X147695295Y-98679285D01*
X147695295Y-98679285D02*
X147600057Y-98726904D01*
X147600057Y-98726904D02*
X147552438Y-98774523D01*
X147552438Y-98774523D02*
X147504819Y-98869761D01*
X147504819Y-98869761D02*
X147504819Y-99060237D01*
X147504819Y-99060237D02*
X147552438Y-99155475D01*
X147552438Y-99155475D02*
X147600057Y-99203094D01*
X147600057Y-99203094D02*
X147695295Y-99250713D01*
X147695295Y-99250713D02*
X147933390Y-99250713D01*
X147933390Y-99250713D02*
X148028628Y-99203094D01*
X148028628Y-99203094D02*
X148076247Y-99155475D01*
X148076247Y-99155475D02*
X148123866Y-99060237D01*
X148123866Y-99060237D02*
X148123866Y-98869761D01*
X148123866Y-98869761D02*
X148076247Y-98774523D01*
X148076247Y-98774523D02*
X148028628Y-98726904D01*
X148028628Y-98726904D02*
X147933390Y-98679285D01*
X153914819Y-99306666D02*
X153438628Y-99639999D01*
X153914819Y-99878094D02*
X152914819Y-99878094D01*
X152914819Y-99878094D02*
X152914819Y-99497142D01*
X152914819Y-99497142D02*
X152962438Y-99401904D01*
X152962438Y-99401904D02*
X153010057Y-99354285D01*
X153010057Y-99354285D02*
X153105295Y-99306666D01*
X153105295Y-99306666D02*
X153248152Y-99306666D01*
X153248152Y-99306666D02*
X153343390Y-99354285D01*
X153343390Y-99354285D02*
X153391009Y-99401904D01*
X153391009Y-99401904D02*
X153438628Y-99497142D01*
X153438628Y-99497142D02*
X153438628Y-99878094D01*
X153343390Y-98735237D02*
X153295771Y-98830475D01*
X153295771Y-98830475D02*
X153248152Y-98878094D01*
X153248152Y-98878094D02*
X153152914Y-98925713D01*
X153152914Y-98925713D02*
X153105295Y-98925713D01*
X153105295Y-98925713D02*
X153010057Y-98878094D01*
X153010057Y-98878094D02*
X152962438Y-98830475D01*
X152962438Y-98830475D02*
X152914819Y-98735237D01*
X152914819Y-98735237D02*
X152914819Y-98544761D01*
X152914819Y-98544761D02*
X152962438Y-98449523D01*
X152962438Y-98449523D02*
X153010057Y-98401904D01*
X153010057Y-98401904D02*
X153105295Y-98354285D01*
X153105295Y-98354285D02*
X153152914Y-98354285D01*
X153152914Y-98354285D02*
X153248152Y-98401904D01*
X153248152Y-98401904D02*
X153295771Y-98449523D01*
X153295771Y-98449523D02*
X153343390Y-98544761D01*
X153343390Y-98544761D02*
X153343390Y-98735237D01*
X153343390Y-98735237D02*
X153391009Y-98830475D01*
X153391009Y-98830475D02*
X153438628Y-98878094D01*
X153438628Y-98878094D02*
X153533866Y-98925713D01*
X153533866Y-98925713D02*
X153724342Y-98925713D01*
X153724342Y-98925713D02*
X153819580Y-98878094D01*
X153819580Y-98878094D02*
X153867200Y-98830475D01*
X153867200Y-98830475D02*
X153914819Y-98735237D01*
X153914819Y-98735237D02*
X153914819Y-98544761D01*
X153914819Y-98544761D02*
X153867200Y-98449523D01*
X153867200Y-98449523D02*
X153819580Y-98401904D01*
X153819580Y-98401904D02*
X153724342Y-98354285D01*
X153724342Y-98354285D02*
X153533866Y-98354285D01*
X153533866Y-98354285D02*
X153438628Y-98401904D01*
X153438628Y-98401904D02*
X153391009Y-98449523D01*
X153391009Y-98449523D02*
X153343390Y-98544761D01*
X152413333Y-65804819D02*
X152080000Y-65328628D01*
X151841905Y-65804819D02*
X151841905Y-64804819D01*
X151841905Y-64804819D02*
X152222857Y-64804819D01*
X152222857Y-64804819D02*
X152318095Y-64852438D01*
X152318095Y-64852438D02*
X152365714Y-64900057D01*
X152365714Y-64900057D02*
X152413333Y-64995295D01*
X152413333Y-64995295D02*
X152413333Y-65138152D01*
X152413333Y-65138152D02*
X152365714Y-65233390D01*
X152365714Y-65233390D02*
X152318095Y-65281009D01*
X152318095Y-65281009D02*
X152222857Y-65328628D01*
X152222857Y-65328628D02*
X151841905Y-65328628D01*
X152746667Y-64804819D02*
X153413333Y-64804819D01*
X153413333Y-64804819D02*
X152984762Y-65804819D01*
X128163333Y-63874819D02*
X127830000Y-63398628D01*
X127591905Y-63874819D02*
X127591905Y-62874819D01*
X127591905Y-62874819D02*
X127972857Y-62874819D01*
X127972857Y-62874819D02*
X128068095Y-62922438D01*
X128068095Y-62922438D02*
X128115714Y-62970057D01*
X128115714Y-62970057D02*
X128163333Y-63065295D01*
X128163333Y-63065295D02*
X128163333Y-63208152D01*
X128163333Y-63208152D02*
X128115714Y-63303390D01*
X128115714Y-63303390D02*
X128068095Y-63351009D01*
X128068095Y-63351009D02*
X127972857Y-63398628D01*
X127972857Y-63398628D02*
X127591905Y-63398628D01*
X129020476Y-62874819D02*
X128830000Y-62874819D01*
X128830000Y-62874819D02*
X128734762Y-62922438D01*
X128734762Y-62922438D02*
X128687143Y-62970057D01*
X128687143Y-62970057D02*
X128591905Y-63112914D01*
X128591905Y-63112914D02*
X128544286Y-63303390D01*
X128544286Y-63303390D02*
X128544286Y-63684342D01*
X128544286Y-63684342D02*
X128591905Y-63779580D01*
X128591905Y-63779580D02*
X128639524Y-63827200D01*
X128639524Y-63827200D02*
X128734762Y-63874819D01*
X128734762Y-63874819D02*
X128925238Y-63874819D01*
X128925238Y-63874819D02*
X129020476Y-63827200D01*
X129020476Y-63827200D02*
X129068095Y-63779580D01*
X129068095Y-63779580D02*
X129115714Y-63684342D01*
X129115714Y-63684342D02*
X129115714Y-63446247D01*
X129115714Y-63446247D02*
X129068095Y-63351009D01*
X129068095Y-63351009D02*
X129020476Y-63303390D01*
X129020476Y-63303390D02*
X128925238Y-63255771D01*
X128925238Y-63255771D02*
X128734762Y-63255771D01*
X128734762Y-63255771D02*
X128639524Y-63303390D01*
X128639524Y-63303390D02*
X128591905Y-63351009D01*
X128591905Y-63351009D02*
X128544286Y-63446247D01*
X153184819Y-93131666D02*
X152708628Y-93464999D01*
X153184819Y-93703094D02*
X152184819Y-93703094D01*
X152184819Y-93703094D02*
X152184819Y-93322142D01*
X152184819Y-93322142D02*
X152232438Y-93226904D01*
X152232438Y-93226904D02*
X152280057Y-93179285D01*
X152280057Y-93179285D02*
X152375295Y-93131666D01*
X152375295Y-93131666D02*
X152518152Y-93131666D01*
X152518152Y-93131666D02*
X152613390Y-93179285D01*
X152613390Y-93179285D02*
X152661009Y-93226904D01*
X152661009Y-93226904D02*
X152708628Y-93322142D01*
X152708628Y-93322142D02*
X152708628Y-93703094D01*
X152184819Y-92226904D02*
X152184819Y-92703094D01*
X152184819Y-92703094D02*
X152661009Y-92750713D01*
X152661009Y-92750713D02*
X152613390Y-92703094D01*
X152613390Y-92703094D02*
X152565771Y-92607856D01*
X152565771Y-92607856D02*
X152565771Y-92369761D01*
X152565771Y-92369761D02*
X152613390Y-92274523D01*
X152613390Y-92274523D02*
X152661009Y-92226904D01*
X152661009Y-92226904D02*
X152756247Y-92179285D01*
X152756247Y-92179285D02*
X152994342Y-92179285D01*
X152994342Y-92179285D02*
X153089580Y-92226904D01*
X153089580Y-92226904D02*
X153137200Y-92274523D01*
X153137200Y-92274523D02*
X153184819Y-92369761D01*
X153184819Y-92369761D02*
X153184819Y-92607856D01*
X153184819Y-92607856D02*
X153137200Y-92703094D01*
X153137200Y-92703094D02*
X153089580Y-92750713D01*
X150093333Y-88554819D02*
X149760000Y-88078628D01*
X149521905Y-88554819D02*
X149521905Y-87554819D01*
X149521905Y-87554819D02*
X149902857Y-87554819D01*
X149902857Y-87554819D02*
X149998095Y-87602438D01*
X149998095Y-87602438D02*
X150045714Y-87650057D01*
X150045714Y-87650057D02*
X150093333Y-87745295D01*
X150093333Y-87745295D02*
X150093333Y-87888152D01*
X150093333Y-87888152D02*
X150045714Y-87983390D01*
X150045714Y-87983390D02*
X149998095Y-88031009D01*
X149998095Y-88031009D02*
X149902857Y-88078628D01*
X149902857Y-88078628D02*
X149521905Y-88078628D01*
X150950476Y-87888152D02*
X150950476Y-88554819D01*
X150712381Y-87507200D02*
X150474286Y-88221485D01*
X150474286Y-88221485D02*
X151093333Y-88221485D01*
X154618333Y-102594819D02*
X154285000Y-102118628D01*
X154046905Y-102594819D02*
X154046905Y-101594819D01*
X154046905Y-101594819D02*
X154427857Y-101594819D01*
X154427857Y-101594819D02*
X154523095Y-101642438D01*
X154523095Y-101642438D02*
X154570714Y-101690057D01*
X154570714Y-101690057D02*
X154618333Y-101785295D01*
X154618333Y-101785295D02*
X154618333Y-101928152D01*
X154618333Y-101928152D02*
X154570714Y-102023390D01*
X154570714Y-102023390D02*
X154523095Y-102071009D01*
X154523095Y-102071009D02*
X154427857Y-102118628D01*
X154427857Y-102118628D02*
X154046905Y-102118628D01*
X154951667Y-101594819D02*
X155570714Y-101594819D01*
X155570714Y-101594819D02*
X155237381Y-101975771D01*
X155237381Y-101975771D02*
X155380238Y-101975771D01*
X155380238Y-101975771D02*
X155475476Y-102023390D01*
X155475476Y-102023390D02*
X155523095Y-102071009D01*
X155523095Y-102071009D02*
X155570714Y-102166247D01*
X155570714Y-102166247D02*
X155570714Y-102404342D01*
X155570714Y-102404342D02*
X155523095Y-102499580D01*
X155523095Y-102499580D02*
X155475476Y-102547200D01*
X155475476Y-102547200D02*
X155380238Y-102594819D01*
X155380238Y-102594819D02*
X155094524Y-102594819D01*
X155094524Y-102594819D02*
X154999286Y-102547200D01*
X154999286Y-102547200D02*
X154951667Y-102499580D01*
X150204819Y-111176666D02*
X149728628Y-111509999D01*
X150204819Y-111748094D02*
X149204819Y-111748094D01*
X149204819Y-111748094D02*
X149204819Y-111367142D01*
X149204819Y-111367142D02*
X149252438Y-111271904D01*
X149252438Y-111271904D02*
X149300057Y-111224285D01*
X149300057Y-111224285D02*
X149395295Y-111176666D01*
X149395295Y-111176666D02*
X149538152Y-111176666D01*
X149538152Y-111176666D02*
X149633390Y-111224285D01*
X149633390Y-111224285D02*
X149681009Y-111271904D01*
X149681009Y-111271904D02*
X149728628Y-111367142D01*
X149728628Y-111367142D02*
X149728628Y-111748094D01*
X149300057Y-110795713D02*
X149252438Y-110748094D01*
X149252438Y-110748094D02*
X149204819Y-110652856D01*
X149204819Y-110652856D02*
X149204819Y-110414761D01*
X149204819Y-110414761D02*
X149252438Y-110319523D01*
X149252438Y-110319523D02*
X149300057Y-110271904D01*
X149300057Y-110271904D02*
X149395295Y-110224285D01*
X149395295Y-110224285D02*
X149490533Y-110224285D01*
X149490533Y-110224285D02*
X149633390Y-110271904D01*
X149633390Y-110271904D02*
X150204819Y-110843332D01*
X150204819Y-110843332D02*
X150204819Y-110224285D01*
X145674819Y-111111666D02*
X145198628Y-111444999D01*
X145674819Y-111683094D02*
X144674819Y-111683094D01*
X144674819Y-111683094D02*
X144674819Y-111302142D01*
X144674819Y-111302142D02*
X144722438Y-111206904D01*
X144722438Y-111206904D02*
X144770057Y-111159285D01*
X144770057Y-111159285D02*
X144865295Y-111111666D01*
X144865295Y-111111666D02*
X145008152Y-111111666D01*
X145008152Y-111111666D02*
X145103390Y-111159285D01*
X145103390Y-111159285D02*
X145151009Y-111206904D01*
X145151009Y-111206904D02*
X145198628Y-111302142D01*
X145198628Y-111302142D02*
X145198628Y-111683094D01*
X145674819Y-110159285D02*
X145674819Y-110730713D01*
X145674819Y-110444999D02*
X144674819Y-110444999D01*
X144674819Y-110444999D02*
X144817676Y-110540237D01*
X144817676Y-110540237D02*
X144912914Y-110635475D01*
X144912914Y-110635475D02*
X144960533Y-110730713D01*
X145296666Y-113399819D02*
X145296666Y-114114104D01*
X145296666Y-114114104D02*
X145249047Y-114256961D01*
X145249047Y-114256961D02*
X145153809Y-114352200D01*
X145153809Y-114352200D02*
X145010952Y-114399819D01*
X145010952Y-114399819D02*
X144915714Y-114399819D01*
X146296666Y-114399819D02*
X145725238Y-114399819D01*
X146010952Y-114399819D02*
X146010952Y-113399819D01*
X146010952Y-113399819D02*
X145915714Y-113542676D01*
X145915714Y-113542676D02*
X145820476Y-113637914D01*
X145820476Y-113637914D02*
X145725238Y-113685533D01*
X148249580Y-110122857D02*
X148297200Y-110170476D01*
X148297200Y-110170476D02*
X148344819Y-110313333D01*
X148344819Y-110313333D02*
X148344819Y-110408571D01*
X148344819Y-110408571D02*
X148297200Y-110551428D01*
X148297200Y-110551428D02*
X148201961Y-110646666D01*
X148201961Y-110646666D02*
X148106723Y-110694285D01*
X148106723Y-110694285D02*
X147916247Y-110741904D01*
X147916247Y-110741904D02*
X147773390Y-110741904D01*
X147773390Y-110741904D02*
X147582914Y-110694285D01*
X147582914Y-110694285D02*
X147487676Y-110646666D01*
X147487676Y-110646666D02*
X147392438Y-110551428D01*
X147392438Y-110551428D02*
X147344819Y-110408571D01*
X147344819Y-110408571D02*
X147344819Y-110313333D01*
X147344819Y-110313333D02*
X147392438Y-110170476D01*
X147392438Y-110170476D02*
X147440057Y-110122857D01*
X148344819Y-109170476D02*
X148344819Y-109741904D01*
X148344819Y-109456190D02*
X147344819Y-109456190D01*
X147344819Y-109456190D02*
X147487676Y-109551428D01*
X147487676Y-109551428D02*
X147582914Y-109646666D01*
X147582914Y-109646666D02*
X147630533Y-109741904D01*
X147773390Y-108599047D02*
X147725771Y-108694285D01*
X147725771Y-108694285D02*
X147678152Y-108741904D01*
X147678152Y-108741904D02*
X147582914Y-108789523D01*
X147582914Y-108789523D02*
X147535295Y-108789523D01*
X147535295Y-108789523D02*
X147440057Y-108741904D01*
X147440057Y-108741904D02*
X147392438Y-108694285D01*
X147392438Y-108694285D02*
X147344819Y-108599047D01*
X147344819Y-108599047D02*
X147344819Y-108408571D01*
X147344819Y-108408571D02*
X147392438Y-108313333D01*
X147392438Y-108313333D02*
X147440057Y-108265714D01*
X147440057Y-108265714D02*
X147535295Y-108218095D01*
X147535295Y-108218095D02*
X147582914Y-108218095D01*
X147582914Y-108218095D02*
X147678152Y-108265714D01*
X147678152Y-108265714D02*
X147725771Y-108313333D01*
X147725771Y-108313333D02*
X147773390Y-108408571D01*
X147773390Y-108408571D02*
X147773390Y-108599047D01*
X147773390Y-108599047D02*
X147821009Y-108694285D01*
X147821009Y-108694285D02*
X147868628Y-108741904D01*
X147868628Y-108741904D02*
X147963866Y-108789523D01*
X147963866Y-108789523D02*
X148154342Y-108789523D01*
X148154342Y-108789523D02*
X148249580Y-108741904D01*
X148249580Y-108741904D02*
X148297200Y-108694285D01*
X148297200Y-108694285D02*
X148344819Y-108599047D01*
X148344819Y-108599047D02*
X148344819Y-108408571D01*
X148344819Y-108408571D02*
X148297200Y-108313333D01*
X148297200Y-108313333D02*
X148249580Y-108265714D01*
X148249580Y-108265714D02*
X148154342Y-108218095D01*
X148154342Y-108218095D02*
X147963866Y-108218095D01*
X147963866Y-108218095D02*
X147868628Y-108265714D01*
X147868628Y-108265714D02*
X147821009Y-108313333D01*
X147821009Y-108313333D02*
X147773390Y-108408571D01*
X154512142Y-107209580D02*
X154464523Y-107257200D01*
X154464523Y-107257200D02*
X154321666Y-107304819D01*
X154321666Y-107304819D02*
X154226428Y-107304819D01*
X154226428Y-107304819D02*
X154083571Y-107257200D01*
X154083571Y-107257200D02*
X153988333Y-107161961D01*
X153988333Y-107161961D02*
X153940714Y-107066723D01*
X153940714Y-107066723D02*
X153893095Y-106876247D01*
X153893095Y-106876247D02*
X153893095Y-106733390D01*
X153893095Y-106733390D02*
X153940714Y-106542914D01*
X153940714Y-106542914D02*
X153988333Y-106447676D01*
X153988333Y-106447676D02*
X154083571Y-106352438D01*
X154083571Y-106352438D02*
X154226428Y-106304819D01*
X154226428Y-106304819D02*
X154321666Y-106304819D01*
X154321666Y-106304819D02*
X154464523Y-106352438D01*
X154464523Y-106352438D02*
X154512142Y-106400057D01*
X155464523Y-107304819D02*
X154893095Y-107304819D01*
X155178809Y-107304819D02*
X155178809Y-106304819D01*
X155178809Y-106304819D02*
X155083571Y-106447676D01*
X155083571Y-106447676D02*
X154988333Y-106542914D01*
X154988333Y-106542914D02*
X154893095Y-106590533D01*
X155797857Y-106304819D02*
X156464523Y-106304819D01*
X156464523Y-106304819D02*
X156035952Y-107304819D01*
X154052142Y-106909580D02*
X154004523Y-106957200D01*
X154004523Y-106957200D02*
X153861666Y-107004819D01*
X153861666Y-107004819D02*
X153766428Y-107004819D01*
X153766428Y-107004819D02*
X153623571Y-106957200D01*
X153623571Y-106957200D02*
X153528333Y-106861961D01*
X153528333Y-106861961D02*
X153480714Y-106766723D01*
X153480714Y-106766723D02*
X153433095Y-106576247D01*
X153433095Y-106576247D02*
X153433095Y-106433390D01*
X153433095Y-106433390D02*
X153480714Y-106242914D01*
X153480714Y-106242914D02*
X153528333Y-106147676D01*
X153528333Y-106147676D02*
X153623571Y-106052438D01*
X153623571Y-106052438D02*
X153766428Y-106004819D01*
X153766428Y-106004819D02*
X153861666Y-106004819D01*
X153861666Y-106004819D02*
X154004523Y-106052438D01*
X154004523Y-106052438D02*
X154052142Y-106100057D01*
X155004523Y-107004819D02*
X154433095Y-107004819D01*
X154718809Y-107004819D02*
X154718809Y-106004819D01*
X154718809Y-106004819D02*
X154623571Y-106147676D01*
X154623571Y-106147676D02*
X154528333Y-106242914D01*
X154528333Y-106242914D02*
X154433095Y-106290533D01*
X155861666Y-106004819D02*
X155671190Y-106004819D01*
X155671190Y-106004819D02*
X155575952Y-106052438D01*
X155575952Y-106052438D02*
X155528333Y-106100057D01*
X155528333Y-106100057D02*
X155433095Y-106242914D01*
X155433095Y-106242914D02*
X155385476Y-106433390D01*
X155385476Y-106433390D02*
X155385476Y-106814342D01*
X155385476Y-106814342D02*
X155433095Y-106909580D01*
X155433095Y-106909580D02*
X155480714Y-106957200D01*
X155480714Y-106957200D02*
X155575952Y-107004819D01*
X155575952Y-107004819D02*
X155766428Y-107004819D01*
X155766428Y-107004819D02*
X155861666Y-106957200D01*
X155861666Y-106957200D02*
X155909285Y-106909580D01*
X155909285Y-106909580D02*
X155956904Y-106814342D01*
X155956904Y-106814342D02*
X155956904Y-106576247D01*
X155956904Y-106576247D02*
X155909285Y-106481009D01*
X155909285Y-106481009D02*
X155861666Y-106433390D01*
X155861666Y-106433390D02*
X155766428Y-106385771D01*
X155766428Y-106385771D02*
X155575952Y-106385771D01*
X155575952Y-106385771D02*
X155480714Y-106433390D01*
X155480714Y-106433390D02*
X155433095Y-106481009D01*
X155433095Y-106481009D02*
X155385476Y-106576247D01*
X130959580Y-75087857D02*
X131007200Y-75135476D01*
X131007200Y-75135476D02*
X131054819Y-75278333D01*
X131054819Y-75278333D02*
X131054819Y-75373571D01*
X131054819Y-75373571D02*
X131007200Y-75516428D01*
X131007200Y-75516428D02*
X130911961Y-75611666D01*
X130911961Y-75611666D02*
X130816723Y-75659285D01*
X130816723Y-75659285D02*
X130626247Y-75706904D01*
X130626247Y-75706904D02*
X130483390Y-75706904D01*
X130483390Y-75706904D02*
X130292914Y-75659285D01*
X130292914Y-75659285D02*
X130197676Y-75611666D01*
X130197676Y-75611666D02*
X130102438Y-75516428D01*
X130102438Y-75516428D02*
X130054819Y-75373571D01*
X130054819Y-75373571D02*
X130054819Y-75278333D01*
X130054819Y-75278333D02*
X130102438Y-75135476D01*
X130102438Y-75135476D02*
X130150057Y-75087857D01*
X131054819Y-74135476D02*
X131054819Y-74706904D01*
X131054819Y-74421190D02*
X130054819Y-74421190D01*
X130054819Y-74421190D02*
X130197676Y-74516428D01*
X130197676Y-74516428D02*
X130292914Y-74611666D01*
X130292914Y-74611666D02*
X130340533Y-74706904D01*
X130054819Y-73230714D02*
X130054819Y-73706904D01*
X130054819Y-73706904D02*
X130531009Y-73754523D01*
X130531009Y-73754523D02*
X130483390Y-73706904D01*
X130483390Y-73706904D02*
X130435771Y-73611666D01*
X130435771Y-73611666D02*
X130435771Y-73373571D01*
X130435771Y-73373571D02*
X130483390Y-73278333D01*
X130483390Y-73278333D02*
X130531009Y-73230714D01*
X130531009Y-73230714D02*
X130626247Y-73183095D01*
X130626247Y-73183095D02*
X130864342Y-73183095D01*
X130864342Y-73183095D02*
X130959580Y-73230714D01*
X130959580Y-73230714D02*
X131007200Y-73278333D01*
X131007200Y-73278333D02*
X131054819Y-73373571D01*
X131054819Y-73373571D02*
X131054819Y-73611666D01*
X131054819Y-73611666D02*
X131007200Y-73706904D01*
X131007200Y-73706904D02*
X130959580Y-73754523D01*
X141939580Y-67717857D02*
X141987200Y-67765476D01*
X141987200Y-67765476D02*
X142034819Y-67908333D01*
X142034819Y-67908333D02*
X142034819Y-68003571D01*
X142034819Y-68003571D02*
X141987200Y-68146428D01*
X141987200Y-68146428D02*
X141891961Y-68241666D01*
X141891961Y-68241666D02*
X141796723Y-68289285D01*
X141796723Y-68289285D02*
X141606247Y-68336904D01*
X141606247Y-68336904D02*
X141463390Y-68336904D01*
X141463390Y-68336904D02*
X141272914Y-68289285D01*
X141272914Y-68289285D02*
X141177676Y-68241666D01*
X141177676Y-68241666D02*
X141082438Y-68146428D01*
X141082438Y-68146428D02*
X141034819Y-68003571D01*
X141034819Y-68003571D02*
X141034819Y-67908333D01*
X141034819Y-67908333D02*
X141082438Y-67765476D01*
X141082438Y-67765476D02*
X141130057Y-67717857D01*
X142034819Y-66765476D02*
X142034819Y-67336904D01*
X142034819Y-67051190D02*
X141034819Y-67051190D01*
X141034819Y-67051190D02*
X141177676Y-67146428D01*
X141177676Y-67146428D02*
X141272914Y-67241666D01*
X141272914Y-67241666D02*
X141320533Y-67336904D01*
X141368152Y-65908333D02*
X142034819Y-65908333D01*
X140987200Y-66146428D02*
X141701485Y-66384523D01*
X141701485Y-66384523D02*
X141701485Y-65765476D01*
X138982142Y-97409580D02*
X138934523Y-97457200D01*
X138934523Y-97457200D02*
X138791666Y-97504819D01*
X138791666Y-97504819D02*
X138696428Y-97504819D01*
X138696428Y-97504819D02*
X138553571Y-97457200D01*
X138553571Y-97457200D02*
X138458333Y-97361961D01*
X138458333Y-97361961D02*
X138410714Y-97266723D01*
X138410714Y-97266723D02*
X138363095Y-97076247D01*
X138363095Y-97076247D02*
X138363095Y-96933390D01*
X138363095Y-96933390D02*
X138410714Y-96742914D01*
X138410714Y-96742914D02*
X138458333Y-96647676D01*
X138458333Y-96647676D02*
X138553571Y-96552438D01*
X138553571Y-96552438D02*
X138696428Y-96504819D01*
X138696428Y-96504819D02*
X138791666Y-96504819D01*
X138791666Y-96504819D02*
X138934523Y-96552438D01*
X138934523Y-96552438D02*
X138982142Y-96600057D01*
X139934523Y-97504819D02*
X139363095Y-97504819D01*
X139648809Y-97504819D02*
X139648809Y-96504819D01*
X139648809Y-96504819D02*
X139553571Y-96647676D01*
X139553571Y-96647676D02*
X139458333Y-96742914D01*
X139458333Y-96742914D02*
X139363095Y-96790533D01*
X140267857Y-96504819D02*
X140886904Y-96504819D01*
X140886904Y-96504819D02*
X140553571Y-96885771D01*
X140553571Y-96885771D02*
X140696428Y-96885771D01*
X140696428Y-96885771D02*
X140791666Y-96933390D01*
X140791666Y-96933390D02*
X140839285Y-96981009D01*
X140839285Y-96981009D02*
X140886904Y-97076247D01*
X140886904Y-97076247D02*
X140886904Y-97314342D01*
X140886904Y-97314342D02*
X140839285Y-97409580D01*
X140839285Y-97409580D02*
X140791666Y-97457200D01*
X140791666Y-97457200D02*
X140696428Y-97504819D01*
X140696428Y-97504819D02*
X140410714Y-97504819D01*
X140410714Y-97504819D02*
X140315476Y-97457200D01*
X140315476Y-97457200D02*
X140267857Y-97409580D01*
X138982142Y-94899580D02*
X138934523Y-94947200D01*
X138934523Y-94947200D02*
X138791666Y-94994819D01*
X138791666Y-94994819D02*
X138696428Y-94994819D01*
X138696428Y-94994819D02*
X138553571Y-94947200D01*
X138553571Y-94947200D02*
X138458333Y-94851961D01*
X138458333Y-94851961D02*
X138410714Y-94756723D01*
X138410714Y-94756723D02*
X138363095Y-94566247D01*
X138363095Y-94566247D02*
X138363095Y-94423390D01*
X138363095Y-94423390D02*
X138410714Y-94232914D01*
X138410714Y-94232914D02*
X138458333Y-94137676D01*
X138458333Y-94137676D02*
X138553571Y-94042438D01*
X138553571Y-94042438D02*
X138696428Y-93994819D01*
X138696428Y-93994819D02*
X138791666Y-93994819D01*
X138791666Y-93994819D02*
X138934523Y-94042438D01*
X138934523Y-94042438D02*
X138982142Y-94090057D01*
X139934523Y-94994819D02*
X139363095Y-94994819D01*
X139648809Y-94994819D02*
X139648809Y-93994819D01*
X139648809Y-93994819D02*
X139553571Y-94137676D01*
X139553571Y-94137676D02*
X139458333Y-94232914D01*
X139458333Y-94232914D02*
X139363095Y-94280533D01*
X140315476Y-94090057D02*
X140363095Y-94042438D01*
X140363095Y-94042438D02*
X140458333Y-93994819D01*
X140458333Y-93994819D02*
X140696428Y-93994819D01*
X140696428Y-93994819D02*
X140791666Y-94042438D01*
X140791666Y-94042438D02*
X140839285Y-94090057D01*
X140839285Y-94090057D02*
X140886904Y-94185295D01*
X140886904Y-94185295D02*
X140886904Y-94280533D01*
X140886904Y-94280533D02*
X140839285Y-94423390D01*
X140839285Y-94423390D02*
X140267857Y-94994819D01*
X140267857Y-94994819D02*
X140886904Y-94994819D01*
X148559580Y-84822857D02*
X148607200Y-84870476D01*
X148607200Y-84870476D02*
X148654819Y-85013333D01*
X148654819Y-85013333D02*
X148654819Y-85108571D01*
X148654819Y-85108571D02*
X148607200Y-85251428D01*
X148607200Y-85251428D02*
X148511961Y-85346666D01*
X148511961Y-85346666D02*
X148416723Y-85394285D01*
X148416723Y-85394285D02*
X148226247Y-85441904D01*
X148226247Y-85441904D02*
X148083390Y-85441904D01*
X148083390Y-85441904D02*
X147892914Y-85394285D01*
X147892914Y-85394285D02*
X147797676Y-85346666D01*
X147797676Y-85346666D02*
X147702438Y-85251428D01*
X147702438Y-85251428D02*
X147654819Y-85108571D01*
X147654819Y-85108571D02*
X147654819Y-85013333D01*
X147654819Y-85013333D02*
X147702438Y-84870476D01*
X147702438Y-84870476D02*
X147750057Y-84822857D01*
X148654819Y-83870476D02*
X148654819Y-84441904D01*
X148654819Y-84156190D02*
X147654819Y-84156190D01*
X147654819Y-84156190D02*
X147797676Y-84251428D01*
X147797676Y-84251428D02*
X147892914Y-84346666D01*
X147892914Y-84346666D02*
X147940533Y-84441904D01*
X148654819Y-82918095D02*
X148654819Y-83489523D01*
X148654819Y-83203809D02*
X147654819Y-83203809D01*
X147654819Y-83203809D02*
X147797676Y-83299047D01*
X147797676Y-83299047D02*
X147892914Y-83394285D01*
X147892914Y-83394285D02*
X147940533Y-83489523D01*
X140202142Y-88959580D02*
X140154523Y-89007200D01*
X140154523Y-89007200D02*
X140011666Y-89054819D01*
X140011666Y-89054819D02*
X139916428Y-89054819D01*
X139916428Y-89054819D02*
X139773571Y-89007200D01*
X139773571Y-89007200D02*
X139678333Y-88911961D01*
X139678333Y-88911961D02*
X139630714Y-88816723D01*
X139630714Y-88816723D02*
X139583095Y-88626247D01*
X139583095Y-88626247D02*
X139583095Y-88483390D01*
X139583095Y-88483390D02*
X139630714Y-88292914D01*
X139630714Y-88292914D02*
X139678333Y-88197676D01*
X139678333Y-88197676D02*
X139773571Y-88102438D01*
X139773571Y-88102438D02*
X139916428Y-88054819D01*
X139916428Y-88054819D02*
X140011666Y-88054819D01*
X140011666Y-88054819D02*
X140154523Y-88102438D01*
X140154523Y-88102438D02*
X140202142Y-88150057D01*
X141154523Y-89054819D02*
X140583095Y-89054819D01*
X140868809Y-89054819D02*
X140868809Y-88054819D01*
X140868809Y-88054819D02*
X140773571Y-88197676D01*
X140773571Y-88197676D02*
X140678333Y-88292914D01*
X140678333Y-88292914D02*
X140583095Y-88340533D01*
X141773571Y-88054819D02*
X141868809Y-88054819D01*
X141868809Y-88054819D02*
X141964047Y-88102438D01*
X141964047Y-88102438D02*
X142011666Y-88150057D01*
X142011666Y-88150057D02*
X142059285Y-88245295D01*
X142059285Y-88245295D02*
X142106904Y-88435771D01*
X142106904Y-88435771D02*
X142106904Y-88673866D01*
X142106904Y-88673866D02*
X142059285Y-88864342D01*
X142059285Y-88864342D02*
X142011666Y-88959580D01*
X142011666Y-88959580D02*
X141964047Y-89007200D01*
X141964047Y-89007200D02*
X141868809Y-89054819D01*
X141868809Y-89054819D02*
X141773571Y-89054819D01*
X141773571Y-89054819D02*
X141678333Y-89007200D01*
X141678333Y-89007200D02*
X141630714Y-88959580D01*
X141630714Y-88959580D02*
X141583095Y-88864342D01*
X141583095Y-88864342D02*
X141535476Y-88673866D01*
X141535476Y-88673866D02*
X141535476Y-88435771D01*
X141535476Y-88435771D02*
X141583095Y-88245295D01*
X141583095Y-88245295D02*
X141630714Y-88150057D01*
X141630714Y-88150057D02*
X141678333Y-88102438D01*
X141678333Y-88102438D02*
X141773571Y-88054819D01*
X140648333Y-90689580D02*
X140600714Y-90737200D01*
X140600714Y-90737200D02*
X140457857Y-90784819D01*
X140457857Y-90784819D02*
X140362619Y-90784819D01*
X140362619Y-90784819D02*
X140219762Y-90737200D01*
X140219762Y-90737200D02*
X140124524Y-90641961D01*
X140124524Y-90641961D02*
X140076905Y-90546723D01*
X140076905Y-90546723D02*
X140029286Y-90356247D01*
X140029286Y-90356247D02*
X140029286Y-90213390D01*
X140029286Y-90213390D02*
X140076905Y-90022914D01*
X140076905Y-90022914D02*
X140124524Y-89927676D01*
X140124524Y-89927676D02*
X140219762Y-89832438D01*
X140219762Y-89832438D02*
X140362619Y-89784819D01*
X140362619Y-89784819D02*
X140457857Y-89784819D01*
X140457857Y-89784819D02*
X140600714Y-89832438D01*
X140600714Y-89832438D02*
X140648333Y-89880057D01*
X141124524Y-90784819D02*
X141315000Y-90784819D01*
X141315000Y-90784819D02*
X141410238Y-90737200D01*
X141410238Y-90737200D02*
X141457857Y-90689580D01*
X141457857Y-90689580D02*
X141553095Y-90546723D01*
X141553095Y-90546723D02*
X141600714Y-90356247D01*
X141600714Y-90356247D02*
X141600714Y-89975295D01*
X141600714Y-89975295D02*
X141553095Y-89880057D01*
X141553095Y-89880057D02*
X141505476Y-89832438D01*
X141505476Y-89832438D02*
X141410238Y-89784819D01*
X141410238Y-89784819D02*
X141219762Y-89784819D01*
X141219762Y-89784819D02*
X141124524Y-89832438D01*
X141124524Y-89832438D02*
X141076905Y-89880057D01*
X141076905Y-89880057D02*
X141029286Y-89975295D01*
X141029286Y-89975295D02*
X141029286Y-90213390D01*
X141029286Y-90213390D02*
X141076905Y-90308628D01*
X141076905Y-90308628D02*
X141124524Y-90356247D01*
X141124524Y-90356247D02*
X141219762Y-90403866D01*
X141219762Y-90403866D02*
X141410238Y-90403866D01*
X141410238Y-90403866D02*
X141505476Y-90356247D01*
X141505476Y-90356247D02*
X141553095Y-90308628D01*
X141553095Y-90308628D02*
X141600714Y-90213390D01*
X152269580Y-84441666D02*
X152317200Y-84489285D01*
X152317200Y-84489285D02*
X152364819Y-84632142D01*
X152364819Y-84632142D02*
X152364819Y-84727380D01*
X152364819Y-84727380D02*
X152317200Y-84870237D01*
X152317200Y-84870237D02*
X152221961Y-84965475D01*
X152221961Y-84965475D02*
X152126723Y-85013094D01*
X152126723Y-85013094D02*
X151936247Y-85060713D01*
X151936247Y-85060713D02*
X151793390Y-85060713D01*
X151793390Y-85060713D02*
X151602914Y-85013094D01*
X151602914Y-85013094D02*
X151507676Y-84965475D01*
X151507676Y-84965475D02*
X151412438Y-84870237D01*
X151412438Y-84870237D02*
X151364819Y-84727380D01*
X151364819Y-84727380D02*
X151364819Y-84632142D01*
X151364819Y-84632142D02*
X151412438Y-84489285D01*
X151412438Y-84489285D02*
X151460057Y-84441666D01*
X151364819Y-84108332D02*
X151364819Y-83441666D01*
X151364819Y-83441666D02*
X152364819Y-83870237D01*
X150469580Y-84411666D02*
X150517200Y-84459285D01*
X150517200Y-84459285D02*
X150564819Y-84602142D01*
X150564819Y-84602142D02*
X150564819Y-84697380D01*
X150564819Y-84697380D02*
X150517200Y-84840237D01*
X150517200Y-84840237D02*
X150421961Y-84935475D01*
X150421961Y-84935475D02*
X150326723Y-84983094D01*
X150326723Y-84983094D02*
X150136247Y-85030713D01*
X150136247Y-85030713D02*
X149993390Y-85030713D01*
X149993390Y-85030713D02*
X149802914Y-84983094D01*
X149802914Y-84983094D02*
X149707676Y-84935475D01*
X149707676Y-84935475D02*
X149612438Y-84840237D01*
X149612438Y-84840237D02*
X149564819Y-84697380D01*
X149564819Y-84697380D02*
X149564819Y-84602142D01*
X149564819Y-84602142D02*
X149612438Y-84459285D01*
X149612438Y-84459285D02*
X149660057Y-84411666D01*
X149564819Y-83554523D02*
X149564819Y-83744999D01*
X149564819Y-83744999D02*
X149612438Y-83840237D01*
X149612438Y-83840237D02*
X149660057Y-83887856D01*
X149660057Y-83887856D02*
X149802914Y-83983094D01*
X149802914Y-83983094D02*
X149993390Y-84030713D01*
X149993390Y-84030713D02*
X150374342Y-84030713D01*
X150374342Y-84030713D02*
X150469580Y-83983094D01*
X150469580Y-83983094D02*
X150517200Y-83935475D01*
X150517200Y-83935475D02*
X150564819Y-83840237D01*
X150564819Y-83840237D02*
X150564819Y-83649761D01*
X150564819Y-83649761D02*
X150517200Y-83554523D01*
X150517200Y-83554523D02*
X150469580Y-83506904D01*
X150469580Y-83506904D02*
X150374342Y-83459285D01*
X150374342Y-83459285D02*
X150136247Y-83459285D01*
X150136247Y-83459285D02*
X150041009Y-83506904D01*
X150041009Y-83506904D02*
X149993390Y-83554523D01*
X149993390Y-83554523D02*
X149945771Y-83649761D01*
X149945771Y-83649761D02*
X149945771Y-83840237D01*
X149945771Y-83840237D02*
X149993390Y-83935475D01*
X149993390Y-83935475D02*
X150041009Y-83983094D01*
X150041009Y-83983094D02*
X150136247Y-84030713D01*
X146739580Y-84286666D02*
X146787200Y-84334285D01*
X146787200Y-84334285D02*
X146834819Y-84477142D01*
X146834819Y-84477142D02*
X146834819Y-84572380D01*
X146834819Y-84572380D02*
X146787200Y-84715237D01*
X146787200Y-84715237D02*
X146691961Y-84810475D01*
X146691961Y-84810475D02*
X146596723Y-84858094D01*
X146596723Y-84858094D02*
X146406247Y-84905713D01*
X146406247Y-84905713D02*
X146263390Y-84905713D01*
X146263390Y-84905713D02*
X146072914Y-84858094D01*
X146072914Y-84858094D02*
X145977676Y-84810475D01*
X145977676Y-84810475D02*
X145882438Y-84715237D01*
X145882438Y-84715237D02*
X145834819Y-84572380D01*
X145834819Y-84572380D02*
X145834819Y-84477142D01*
X145834819Y-84477142D02*
X145882438Y-84334285D01*
X145882438Y-84334285D02*
X145930057Y-84286666D01*
X145834819Y-83381904D02*
X145834819Y-83858094D01*
X145834819Y-83858094D02*
X146311009Y-83905713D01*
X146311009Y-83905713D02*
X146263390Y-83858094D01*
X146263390Y-83858094D02*
X146215771Y-83762856D01*
X146215771Y-83762856D02*
X146215771Y-83524761D01*
X146215771Y-83524761D02*
X146263390Y-83429523D01*
X146263390Y-83429523D02*
X146311009Y-83381904D01*
X146311009Y-83381904D02*
X146406247Y-83334285D01*
X146406247Y-83334285D02*
X146644342Y-83334285D01*
X146644342Y-83334285D02*
X146739580Y-83381904D01*
X146739580Y-83381904D02*
X146787200Y-83429523D01*
X146787200Y-83429523D02*
X146834819Y-83524761D01*
X146834819Y-83524761D02*
X146834819Y-83762856D01*
X146834819Y-83762856D02*
X146787200Y-83858094D01*
X146787200Y-83858094D02*
X146739580Y-83905713D01*
X135463333Y-89039580D02*
X135415714Y-89087200D01*
X135415714Y-89087200D02*
X135272857Y-89134819D01*
X135272857Y-89134819D02*
X135177619Y-89134819D01*
X135177619Y-89134819D02*
X135034762Y-89087200D01*
X135034762Y-89087200D02*
X134939524Y-88991961D01*
X134939524Y-88991961D02*
X134891905Y-88896723D01*
X134891905Y-88896723D02*
X134844286Y-88706247D01*
X134844286Y-88706247D02*
X134844286Y-88563390D01*
X134844286Y-88563390D02*
X134891905Y-88372914D01*
X134891905Y-88372914D02*
X134939524Y-88277676D01*
X134939524Y-88277676D02*
X135034762Y-88182438D01*
X135034762Y-88182438D02*
X135177619Y-88134819D01*
X135177619Y-88134819D02*
X135272857Y-88134819D01*
X135272857Y-88134819D02*
X135415714Y-88182438D01*
X135415714Y-88182438D02*
X135463333Y-88230057D01*
X136320476Y-88468152D02*
X136320476Y-89134819D01*
X136082381Y-88087200D02*
X135844286Y-88801485D01*
X135844286Y-88801485D02*
X136463333Y-88801485D01*
X144173333Y-106009580D02*
X144125714Y-106057200D01*
X144125714Y-106057200D02*
X143982857Y-106104819D01*
X143982857Y-106104819D02*
X143887619Y-106104819D01*
X143887619Y-106104819D02*
X143744762Y-106057200D01*
X143744762Y-106057200D02*
X143649524Y-105961961D01*
X143649524Y-105961961D02*
X143601905Y-105866723D01*
X143601905Y-105866723D02*
X143554286Y-105676247D01*
X143554286Y-105676247D02*
X143554286Y-105533390D01*
X143554286Y-105533390D02*
X143601905Y-105342914D01*
X143601905Y-105342914D02*
X143649524Y-105247676D01*
X143649524Y-105247676D02*
X143744762Y-105152438D01*
X143744762Y-105152438D02*
X143887619Y-105104819D01*
X143887619Y-105104819D02*
X143982857Y-105104819D01*
X143982857Y-105104819D02*
X144125714Y-105152438D01*
X144125714Y-105152438D02*
X144173333Y-105200057D01*
X144506667Y-105104819D02*
X145125714Y-105104819D01*
X145125714Y-105104819D02*
X144792381Y-105485771D01*
X144792381Y-105485771D02*
X144935238Y-105485771D01*
X144935238Y-105485771D02*
X145030476Y-105533390D01*
X145030476Y-105533390D02*
X145078095Y-105581009D01*
X145078095Y-105581009D02*
X145125714Y-105676247D01*
X145125714Y-105676247D02*
X145125714Y-105914342D01*
X145125714Y-105914342D02*
X145078095Y-106009580D01*
X145078095Y-106009580D02*
X145030476Y-106057200D01*
X145030476Y-106057200D02*
X144935238Y-106104819D01*
X144935238Y-106104819D02*
X144649524Y-106104819D01*
X144649524Y-106104819D02*
X144554286Y-106057200D01*
X144554286Y-106057200D02*
X144506667Y-106009580D01*
X131329580Y-110241666D02*
X131377200Y-110289285D01*
X131377200Y-110289285D02*
X131424819Y-110432142D01*
X131424819Y-110432142D02*
X131424819Y-110527380D01*
X131424819Y-110527380D02*
X131377200Y-110670237D01*
X131377200Y-110670237D02*
X131281961Y-110765475D01*
X131281961Y-110765475D02*
X131186723Y-110813094D01*
X131186723Y-110813094D02*
X130996247Y-110860713D01*
X130996247Y-110860713D02*
X130853390Y-110860713D01*
X130853390Y-110860713D02*
X130662914Y-110813094D01*
X130662914Y-110813094D02*
X130567676Y-110765475D01*
X130567676Y-110765475D02*
X130472438Y-110670237D01*
X130472438Y-110670237D02*
X130424819Y-110527380D01*
X130424819Y-110527380D02*
X130424819Y-110432142D01*
X130424819Y-110432142D02*
X130472438Y-110289285D01*
X130472438Y-110289285D02*
X130520057Y-110241666D01*
X130520057Y-109860713D02*
X130472438Y-109813094D01*
X130472438Y-109813094D02*
X130424819Y-109717856D01*
X130424819Y-109717856D02*
X130424819Y-109479761D01*
X130424819Y-109479761D02*
X130472438Y-109384523D01*
X130472438Y-109384523D02*
X130520057Y-109336904D01*
X130520057Y-109336904D02*
X130615295Y-109289285D01*
X130615295Y-109289285D02*
X130710533Y-109289285D01*
X130710533Y-109289285D02*
X130853390Y-109336904D01*
X130853390Y-109336904D02*
X131424819Y-109908332D01*
X131424819Y-109908332D02*
X131424819Y-109289285D01*
X141763333Y-111309580D02*
X141715714Y-111357200D01*
X141715714Y-111357200D02*
X141572857Y-111404819D01*
X141572857Y-111404819D02*
X141477619Y-111404819D01*
X141477619Y-111404819D02*
X141334762Y-111357200D01*
X141334762Y-111357200D02*
X141239524Y-111261961D01*
X141239524Y-111261961D02*
X141191905Y-111166723D01*
X141191905Y-111166723D02*
X141144286Y-110976247D01*
X141144286Y-110976247D02*
X141144286Y-110833390D01*
X141144286Y-110833390D02*
X141191905Y-110642914D01*
X141191905Y-110642914D02*
X141239524Y-110547676D01*
X141239524Y-110547676D02*
X141334762Y-110452438D01*
X141334762Y-110452438D02*
X141477619Y-110404819D01*
X141477619Y-110404819D02*
X141572857Y-110404819D01*
X141572857Y-110404819D02*
X141715714Y-110452438D01*
X141715714Y-110452438D02*
X141763333Y-110500057D01*
X142715714Y-111404819D02*
X142144286Y-111404819D01*
X142430000Y-111404819D02*
X142430000Y-110404819D01*
X142430000Y-110404819D02*
X142334762Y-110547676D01*
X142334762Y-110547676D02*
X142239524Y-110642914D01*
X142239524Y-110642914D02*
X142144286Y-110690533D01*
%TO.C,C8*%
D11*
X154220580Y-88920000D02*
X153939420Y-88920000D01*
X154220580Y-89940000D02*
X153939420Y-89940000D01*
%TO.C,J5*%
X163660000Y-108770000D02*
X162280000Y-108770000D01*
X163660000Y-107390000D02*
X163660000Y-108770000D01*
X163660000Y-106120000D02*
X163660000Y-75530000D01*
X163660000Y-106120000D02*
X160900000Y-106120000D01*
X163660000Y-75530000D02*
X160900000Y-75530000D01*
X160900000Y-106120000D02*
X160900000Y-75530000D01*
%TO.C,J4*%
X129290000Y-118645000D02*
X127910000Y-118645000D01*
X129290000Y-117265000D02*
X129290000Y-118645000D01*
X129290000Y-115995000D02*
X129290000Y-67625000D01*
X129290000Y-115995000D02*
X126530000Y-115995000D01*
X129290000Y-67625000D02*
X126530000Y-67625000D01*
X126530000Y-115995000D02*
X126530000Y-67625000D01*
%TO.C,J2*%
X152520000Y-119680000D02*
X152520000Y-118300000D01*
X153900000Y-119680000D02*
X152520000Y-119680000D01*
X155170000Y-119680000D02*
X162900000Y-119680000D01*
X155170000Y-119680000D02*
X155170000Y-116920000D01*
X162900000Y-119680000D02*
X162900000Y-116920000D01*
X155170000Y-116920000D02*
X162900000Y-116920000D01*
%TO.C,Y1*%
X153110000Y-95900000D02*
X153110000Y-99320000D01*
X153110000Y-99320000D02*
X157230000Y-99320000D01*
%TO.C,U4*%
X148130000Y-102045000D02*
X148130000Y-101820000D01*
X148130000Y-105880000D02*
X148130000Y-105355000D01*
X148130000Y-105880000D02*
X148655000Y-105880000D01*
X148655000Y-101580000D02*
X148430000Y-101580000D01*
X152430000Y-101580000D02*
X151905000Y-101580000D01*
X152430000Y-101580000D02*
X152430000Y-102105000D01*
X152430000Y-105880000D02*
X151905000Y-105880000D01*
X152430000Y-105880000D02*
X152430000Y-105355000D01*
X148130000Y-101580000D02*
X147890000Y-101250000D01*
X148370000Y-101250000D01*
X148130000Y-101580000D01*
G36*
X148130000Y-101580000D02*
G01*
X147890000Y-101250000D01*
X148370000Y-101250000D01*
X148130000Y-101580000D01*
G37*
%TO.C,U3*%
X135670000Y-100610000D02*
X139430000Y-100610000D01*
X135670000Y-107430000D02*
X139430000Y-107430000D01*
X139430000Y-100610000D02*
X139430000Y-101870000D01*
X139430000Y-107430000D02*
X139430000Y-106170000D01*
X134390000Y-100710000D02*
X134150000Y-100380000D01*
X134630000Y-100380000D01*
X134390000Y-100710000D01*
G36*
X134390000Y-100710000D02*
G01*
X134150000Y-100380000D01*
X134630000Y-100380000D01*
X134390000Y-100710000D01*
G37*
%TO.C,U2*%
D10*
X145590000Y-71325000D02*
X145590000Y-66965000D01*
X145590000Y-66965000D02*
X150870000Y-66965000D01*
X150870000Y-66965000D02*
X150870000Y-71325000D01*
X150870000Y-71325000D02*
X145590000Y-71325000D01*
D12*
X146480000Y-70565000D02*
G75*
G02*
X146180000Y-70565000I-150000J0D01*
G01*
X146180000Y-70565000D02*
G75*
G02*
X146480000Y-70565000I150000J0D01*
G01*
X145710000Y-72675000D02*
G75*
G02*
X145410000Y-72675000I-150000J0D01*
G01*
X145410000Y-72675000D02*
G75*
G02*
X145710000Y-72675000I150000J0D01*
G01*
D13*
X145670000Y-73065000D02*
G75*
G02*
X145610000Y-73065000I-30000J0D01*
G01*
X145610000Y-73065000D02*
G75*
G02*
X145670000Y-73065000I30000J0D01*
G01*
%TO.C,U1*%
D11*
X143660000Y-89000000D02*
X144110000Y-89000000D01*
X143660000Y-89450000D02*
X143660000Y-89000000D01*
X143660000Y-96220000D02*
X143660000Y-95770000D01*
X144110000Y-96220000D02*
X143660000Y-96220000D01*
X150430000Y-89000000D02*
X150880000Y-89000000D01*
X150880000Y-89000000D02*
X150880000Y-89450000D01*
X150880000Y-95770000D02*
X150880000Y-96220000D01*
X150880000Y-96220000D02*
X150430000Y-96220000D01*
X143160000Y-89810000D02*
X142830000Y-90050000D01*
X142830000Y-89570000D01*
X143160000Y-89810000D01*
G36*
X143160000Y-89810000D02*
G01*
X142830000Y-90050000D01*
X142830000Y-89570000D01*
X143160000Y-89810000D01*
G37*
%TO.C,SW2*%
X156190000Y-66379000D02*
X157340000Y-65210000D01*
X156190000Y-67060000D02*
X156190000Y-66379000D01*
X156190000Y-69660000D02*
X156190000Y-70360000D01*
X156190000Y-70360000D02*
X157340000Y-71510000D01*
X157340000Y-65210000D02*
X161340000Y-65210000D01*
X157340000Y-71510000D02*
X161340000Y-71510000D01*
X161340000Y-65210000D02*
X162490000Y-66360000D01*
X161340000Y-71510000D02*
X162490000Y-70360000D01*
X162490000Y-66360000D02*
X162490000Y-67060000D01*
X162490000Y-70360000D02*
X162490000Y-69660000D01*
%TO.C,SW1*%
X131370000Y-64599000D02*
X132520000Y-63430000D01*
X131370000Y-65280000D02*
X131370000Y-64599000D01*
X131370000Y-67880000D02*
X131370000Y-68580000D01*
X131370000Y-68580000D02*
X132520000Y-69730000D01*
X132520000Y-63430000D02*
X136520000Y-63430000D01*
X132520000Y-69730000D02*
X136520000Y-69730000D01*
X136520000Y-63430000D02*
X137670000Y-64580000D01*
X136520000Y-69730000D02*
X137670000Y-68580000D01*
X137670000Y-64580000D02*
X137670000Y-65280000D01*
X137670000Y-68580000D02*
X137670000Y-67880000D01*
%TO.C,R9*%
X148957500Y-99702258D02*
X148957500Y-99227742D01*
X150002500Y-99702258D02*
X150002500Y-99227742D01*
%TO.C,R8*%
X152552500Y-98902742D02*
X152552500Y-99377258D01*
X151507500Y-98902742D02*
X151507500Y-99377258D01*
%TO.C,R7*%
X152342742Y-66257500D02*
X152817258Y-66257500D01*
X152342742Y-67302500D02*
X152817258Y-67302500D01*
%TO.C,R6*%
X128092742Y-64327500D02*
X128567258Y-64327500D01*
X128092742Y-65372500D02*
X128567258Y-65372500D01*
%TO.C,R5*%
X153637500Y-93202258D02*
X153637500Y-92727742D01*
X154682500Y-93202258D02*
X154682500Y-92727742D01*
%TO.C,R4*%
X150497258Y-87192500D02*
X150022742Y-87192500D01*
X150497258Y-86147500D02*
X150022742Y-86147500D01*
%TO.C,R3*%
X155022258Y-101232500D02*
X154547742Y-101232500D01*
X155022258Y-100187500D02*
X154547742Y-100187500D01*
%TO.C,R2*%
X150657500Y-111247258D02*
X150657500Y-110772742D01*
X151702500Y-111247258D02*
X151702500Y-110772742D01*
%TO.C,R1*%
X146127500Y-111182258D02*
X146127500Y-110707742D01*
X147172500Y-111182258D02*
X147172500Y-110707742D01*
%TO.C,J1*%
X140930000Y-117690000D02*
X140930000Y-119690000D01*
X140930000Y-121590000D02*
X140930000Y-123490000D01*
X140930000Y-123490000D02*
X150330000Y-123490000D01*
X150330000Y-117690000D02*
X150330000Y-119690000D01*
X150330000Y-121590000D02*
X150330000Y-123490000D01*
%TO.C,C18*%
X148810000Y-109620580D02*
X148810000Y-109339420D01*
X149830000Y-109620580D02*
X149830000Y-109339420D01*
%TO.C,C17*%
X155295580Y-105930000D02*
X155014420Y-105930000D01*
X155295580Y-104910000D02*
X155014420Y-104910000D01*
%TO.C,C16*%
X154554420Y-107470000D02*
X154835580Y-107470000D01*
X154554420Y-108490000D02*
X154835580Y-108490000D01*
%TO.C,C15*%
X131520000Y-74585580D02*
X131520000Y-74304420D01*
X132540000Y-74585580D02*
X132540000Y-74304420D01*
%TO.C,C14*%
X142500000Y-67215580D02*
X142500000Y-66934420D01*
X143520000Y-67215580D02*
X143520000Y-66934420D01*
%TO.C,C13*%
X139484420Y-97970000D02*
X139765580Y-97970000D01*
X139484420Y-98990000D02*
X139765580Y-98990000D01*
%TO.C,C12*%
X139484420Y-95460000D02*
X139765580Y-95460000D01*
X139484420Y-96480000D02*
X139765580Y-96480000D01*
%TO.C,C11*%
X147280000Y-84039420D02*
X147280000Y-84320580D01*
X146260000Y-84039420D02*
X146260000Y-84320580D01*
%TO.C,C10*%
X140704420Y-89520000D02*
X140985580Y-89520000D01*
X140704420Y-90540000D02*
X140985580Y-90540000D01*
%TO.C,C9*%
X140674420Y-91250000D02*
X140955580Y-91250000D01*
X140674420Y-92270000D02*
X140955580Y-92270000D01*
%TO.C,C7*%
X150990000Y-84134420D02*
X150990000Y-84415580D01*
X149970000Y-84134420D02*
X149970000Y-84415580D01*
%TO.C,C6*%
X149190000Y-84104420D02*
X149190000Y-84385580D01*
X148170000Y-84104420D02*
X148170000Y-84385580D01*
%TO.C,C5*%
X145460000Y-83979420D02*
X145460000Y-84260580D01*
X144440000Y-83979420D02*
X144440000Y-84260580D01*
%TO.C,C4*%
X135489420Y-89600000D02*
X135770580Y-89600000D01*
X135489420Y-90620000D02*
X135770580Y-90620000D01*
%TO.C,C3*%
X144480580Y-104730000D02*
X144199420Y-104730000D01*
X144480580Y-103710000D02*
X144199420Y-103710000D01*
%TO.C,C2*%
X131890000Y-110215580D02*
X131890000Y-109934420D01*
X132910000Y-110215580D02*
X132910000Y-109934420D01*
%TO.C,C1*%
X141789420Y-111870000D02*
X142070580Y-111870000D01*
X141789420Y-112890000D02*
X142070580Y-112890000D01*
%TD*%
M02*
