%TF.GenerationSoftware,KiCad,Pcbnew,10.0.1*%
%TF.CreationDate,2026-05-27T21:04:03-06:00*%
%TF.ProjectId,week 6 resolution,7765656b-2036-4207-9265-736f6c757469,rev?*%
%TF.SameCoordinates,Original*%
%TF.FileFunction,Soldermask,Bot*%
%TF.FilePolarity,Negative*%
%FSLAX46Y46*%
G04 Gerber Fmt 4.6, Leading zero omitted, Abs format (unit mm)*
G04 Created by KiCad (PCBNEW 10.0.1) date 2026-05-27 21:04:03*
%MOMM*%
%LPD*%
G01*
G04 APERTURE LIST*
%ADD10R,1.700000X1.700000*%
%ADD11C,1.700000*%
%ADD12C,0.650000*%
%ADD13O,1.000000X2.100000*%
%ADD14O,1.000000X1.600000*%
G04 APERTURE END LIST*
D10*
%TO.C,J5*%
X162280000Y-107390000D03*
D11*
X162280000Y-104850000D03*
X162280000Y-102310000D03*
X162280000Y-99770000D03*
X162280000Y-97230000D03*
X162280000Y-94690000D03*
X162280000Y-92150000D03*
X162280000Y-89610000D03*
X162280000Y-87070000D03*
X162280000Y-84530000D03*
X162280000Y-81990000D03*
X162280000Y-79450000D03*
X162280000Y-76910000D03*
%TD*%
D10*
%TO.C,J4*%
X127910000Y-117265000D03*
D11*
X127910000Y-114725000D03*
X127910000Y-112185000D03*
X127910000Y-109645000D03*
X127910000Y-107105000D03*
X127910000Y-104565000D03*
X127910000Y-102025000D03*
X127910000Y-99485000D03*
X127910000Y-96945000D03*
X127910000Y-94405000D03*
X127910000Y-91865000D03*
X127910000Y-89325000D03*
X127910000Y-86785000D03*
X127910000Y-84245000D03*
X127910000Y-81705000D03*
X127910000Y-79165000D03*
X127910000Y-76625000D03*
X127910000Y-74085000D03*
X127910000Y-71545000D03*
X127910000Y-69005000D03*
%TD*%
D10*
%TO.C,J2*%
X153900000Y-118300000D03*
D11*
X156440000Y-118300000D03*
X158980000Y-118300000D03*
X161520000Y-118300000D03*
%TD*%
D12*
%TO.C,J1*%
X142740000Y-116990000D03*
X148520000Y-116990000D03*
D13*
X141310000Y-116460000D03*
D14*
X141310000Y-120640000D03*
D13*
X149950000Y-116460000D03*
D14*
X149950000Y-120640000D03*
%TD*%
M02*
